<?xml version="1.0" encoding="UTF-8" standalone="no"?>
<!-- Created with Inkscape (http://www.inkscape.org/) -->
<svg xmlns:rdf="http://www.w3.org/1999/02/22-rdf-syntax-ns#" xmlns="http://www.w3.org/2000/svg" xmlns:cc="http://creativecommons.org/ns#" xmlns:dc="http://purl.org/dc/elements/1.1/" xmlns:svg="http://www.w3.org/2000/svg" xmlns:inkscape="http://www.inkscape.org/namespaces/inkscape" xmlns:sodipodi="http://sodipodi.sourceforge.net/DTD/sodipodi-0.dtd" xmlns:ns1="http://sozi.baierouge.fr" xmlns:xlink="http://www.w3.org/1999/xlink" id="svg18178" viewBox="0 0 744.09 1052.4" version="1.2" inkscape:version="0.91 r13725">
  <g id="layer1">
    <path id="path5935" style="stroke:#1a1a1a;stroke-width:5.5771px;fill:#1a1a1a" d="m592.29 508.53c2.7886 0.69714 60.144 4.5912 62.932-4.4716 2.7886-9.0628-27.587-59.036-48.501-66.705-20.914-7.6686-38.052-16.179-57.704-16.791 0 0-46.708-6.9714-110.15-0.69714 0 0 59.687 9.5244 73.439 17.886 5.8748 3.5722 14.807 11.665 16.921 13.282 14.671 11.226 26.391 29.177 42.844 31.005 18.823 2.0914 20.217 26.491 20.217 26.491z"/>
    <path id="path4583-0" style="fill:#000000" d="m454.71 620.57c-3.3133-1.3844-9.3492-5.582-13.413-9.3283-24.084-22.2-25.763-67.451-3.4119-91.951 10.562-11.577 20.127-15.92 33.231-15.085 42.094 2.6804 59.959 68.815 28.322 104.85-10.831 12.336-30.589 17.423-44.727 11.516zm26.475-13.998c15.463-7.6542 25.762-26.841 24.438-45.527-1.7869-25.209-19.051-43.256-41.205-43.073-20.376 0.16787-35.607 14.335-39.8 37.019-4.1308 22.345 6.9492 44.423 26.366 52.536 8.6287 3.6053 21.834 3.1883 30.202-0.95385zm-27.909-4.6006c-6.8154-2.5912-16.188-12.005-19.575-19.661-4.9997-11.303-4.5638-26.515 1.091-38.073 5.0836-10.39 9.421-14.409 19.855-18.393 20.146-7.6936 42.204 8.9252 44.43 33.474 2.189 24.14-12.893 44.124-33.329 44.161-4.656 0.0167-10.268-0.67009-12.472-1.5078zm14.481-30.24c2.2041-2.2041 4.0075-5.911 4.0075-8.2376 0-4.9464-6.6368-12.245-11.134-12.245-5.7385 0-11.723 6.2511-11.723 12.245 0 3.9727 1.1818 6.4071 4.3019 8.8613 5.6494 4.4439 9.6524 4.2723 14.548-0.62369zm-11.503-8.26c0-3.6936 0.74856-4.8757 3.0874-4.8757 4.5278 0 7.0724 4.7743 4.3151 8.0967-3.4357 4.1397-7.4026 2.4138-7.4026-3.221zm47.614 49.412c7.8282-8.4931 13.745-20.318 16.135-32.246 1.5981-7.9767 2.2872-9.0376 6.1693-9.4964 5.3453-0.63206 5.4508 0.75625 1.1224 14.77-3.8523 12.472-10.561 22.271-19.861 29.007-9.5661 6.9297-11.048 6.0838-3.5655-2.0348zm77.852-14.302c-9.91-2.6382-20.75-8.6288-26.23-14.496l-3.8029-4.0718 6.2519-0.99156c3.4385-0.54544 11.028-0.90221 16.864-0.79301 8.8047 0.16453 61.833-6.385 74.696-9.2259 4.9056-1.0835 4.6935 1.6855-0.72865 9.5097-12.389 17.877-41.996 26.739-67.051 20.069zm-386.47-18.7c6.722-1.7532 12.66-14.147 14.323-21.067 1.0882-4.5291 1.4049-4.663 9.2449-3.9096 4.465 0.42889 3.8791 0.47741 3.8791 0.47741 1.528 1.5281-8.62 15.013-12.469 17.709-2.1375 1.497-14.889 6.5108-19.439 7.7953l-7.4085 2.0914zm-41.346-6.8603c-3.4355-3.2648-18.417-19.578-19.809-38.987 0 0-0.49581-13.453 3.2438-23.31 3.7397-9.857 27.243-17.689 29.124-17.394 1.8804 0.29447-13.739 8.7836-14.995 11.197-6.8108 13.079-8.1695 20.719-7.3547 30.915 0.81487 10.196 4.2763 21.64 10.191 27.235 9.148 8.6537 34.21 9.8386 41.589-4.4306 1.4306-2.7665 4.8818-15.192 3.7855-21.801-1.0006-6.0323 8.128-4.8558 8.128-4.8558s1.7463 12.261 0.0279 18.477c-6.6372 24.013-30.128 45.574-53.93 22.955zm389.07-5.4084v-4.7325l14.618 0.35136c8.04 0.19353 15.15 0.68019 15.8 1.0816 0.6498 0.40155 27.25-2.5862 59.112-6.6397 64.936-8.261 58.505-9.3557 58.505-5.9379 0 3.1216 0.55604 3.0081-53.063 10.839-42.912 6.2669-62.028 10.022-80.884 9.6035-7.8769-0.17512-14.089 0.001-14.089-4.5652zm-386.3-9.48c-6.7697-10.247-7.8973-24.139-7.8973-32.645 0-28.664 33.031-28.905 44.924-6.4355 1.8741 3.5408 2.8133 9.2598 2.8747 17.504 0.0759 10.164-0.6025 13.465-3.9906 19.422-6.4753 11.384-28.298 13.678-35.911 2.1544zm23.549-23.178c1.3418-4.8306-3.1097-9.9338-7.2499-12.149-6.955-3.7222-13.162 4.9848-9.82 13.775 2.3316 6.1328 12.964 10.864 15.327 4.6491zm-13.174-2.1136c0-2.7413 0.039-5.3088 3.027-5.5862 4.3787-0.40657 6.7803 2.5233 5.8156 5.9348-0.95475 3.3759-0.79825 5.9179-5.467 4.889-4.6069-1.0153-2.6784-1.4506-3.3756-5.2376zm15.659-104.08c9.0377-14.649 21.693-34.972 27.331-41.565 11.939-13.963 24.011-23.76 31.135-27.351 11.874-5.9851 44.137-14.674 77.057-15.018 19.662-0.20524 39.904 0.38984 67.822 2.6229 39.172 3.1334 109.27 11.295 74.702 11.235-21.646-4.4022-46.346-4.8913-54.505-1.2153-9.8848 4.4531-17.134 7.3039-17.134 13.659 0 4.3381 4.9937 29.325 11.423 38.354 2.3571 3.3102 5.222 4.9277 10.114 5.7099 3.7539 0.60027 1.9649 1.397 0.84449 1.7705-1.1204 0.37367-2.0372 1.6749-2.0372 2.892 0 2.6544 6.3352 5.2836 34.287 4.9218 57.168-0.74003 103.14 44.08 102.42 43.779l11.129 17.902-3.2391 3.4478c-15.698 16.71-7.3232 53.201 12.211 53.201 6.8021 0 14.558-6.3312 17.066-13.931l1.8683-5.661h14.331c14.277 0 49.94 2.332 63.108-3.2584 4.6315-1.9662 9.8041-2.799 10.811-4.0837 1.4946-1.906 2.0044-1.4717 2.7708 2.3602 0.51644 2.5828 2.8672 6.9874 5.2238 9.788 4.0142 4.7706 12.488 7.4146 10.085 10.846-0.47461 11.657-3.3455-13.376-5.8931-4.3678 0.48131 9.729 8.1393 13.992-52.046 16.466-36.073 1.4828-51.925 5.7922-69.965 5.6392-25.54-0.21696-24.582-3.7814-24.582 3.9955 0 4.3621-0.72804 3.4134-6.563 3.4134-3.4565 0 14.167 1.1583 7.2966 0.57746h-0.001l-12.492-1.0559v-5.3028c0-15.002-17.362-54.333-28.007-63.444-12.069-10.33-21.823-13.027-46.683-12.904-19.928 0.0982-22.317 0.44394-30.41 4.4034-15.936 7.7967-22.066 22.271-23.45 55.368l-0.87388 20.907-8.3517-0.92525c-4.5934-0.50919-30.994-3.4817-72.302-6.6064-41.307-3.1245-90.044-6.0988-94.67-6.6093l-8.4119-0.92837-2.614-14.092c-4.9704-26.795-11.242-44.322-35.731-47.599-15.46-2.0684-36.617 0.6291-41.311 5.0022-4.3915 4.0913-6.8691 16.626-5.4082 27.362 0.64154 4.7144 1.1145 8.5405 1.051 8.5024-0.0636-0.039-4.7379 3.8241-9.7924 3.4192l-20.239-2.4373 0.55659-7.7129s-2.3156-8.2116-4.5281-10.018c-2.2125-1.8068-10.683-2.2332-10.683-2.2332-0.12437-4.9079-2.0794-15.43-2.1682-24.67-0.13329-13.852 6.692-30.484 15.687-38.607 7.1664-6.471 38.868-1.3119 53.136-3.6022l5.2927-6.5204c-23.868 6.3463-56.002-3.151-63.114 7.2499-3.5899 5.2498-16.429 11.711-17.938 24.403-1.4132 11.886 1.3208 21.018 1.1834 25.116-0.79374 4.442-0.04462 8.6561 0.65085 11.955-0.44059 1.0684-5.5649 2.373-6.9333 4.8362-2.3821 4.288-1.1716 13.165-0.7712 14.695 0.40044 1.5299 2.0327 5.2781 4.4046 6.3152 2.372 1.037 0.86116 0.73222 8.5948 2.3715s38.093 5.6997 38.093 5.6997c15.591 2.3328 8.3695-5.4211 8.3695-1.9118 0 5.6447 9.8467 27.233 14.77 33.688 7.7336 10.139 18.346 18.759 39.529 18.135 17.924 0.48075 24.412-8.1008 33.778-16.406 4.6199-4.0968 9.2231-10.141 10.028-15.575 4.9876 2.5833 51.732 3.2867 97.473 6.8568 45.741 3.57 79.846 7.1905 83.457 7.1933h6.5654l1.9214 10.11c3.8735 20.383 15.657 37.276 31.814 45.613 7.8128 4.031 26.717 5.479 41.334 3.1663l0.00062 0.004c10.572-1.6725 20.283-6.6846 27.87-14.384 6.8653-6.9672 16.079-25.592 17.776-35.933l1.1387-6.939-6.2118 1.1439c14.151-2.5766 8.6024 4.8332 17.896 14.461 31.458 32.59 90.734 25.888 109.32-12.36l3.3366-6.8676 11.067-3.5896c15.268-4.9522 19.435-3.1982 21.942-6.2941 3.8967-4.8121 3.068-11.643-1.6643-13.719-2.9531-1.2957-3.6735-2.929-3.6735-8.328 0-3.694 6.722 17.589 7.7078 14.761 1.3058-3.7458 1.2998-6.5551-0.0223-10.347-1.6558-4.7498-1.3927-5.6432 3.0056-10.204 11.322-11.741 11.262-30.868-0.13664-43.534-7.3765-8.1971-33.484-41.965-54.161-43.698-8.9998-0.75458-6.5067-1.1466-10.549-3.7238-18.696-11.919-33.413-23.696-91.289-30.08-11.199-1.2354 1.7295-2.895 1.4652-3.688-2.4828-7.4484-17.518-28.904-28.056-40.037-12.345-13.041-10.461-2.7815-21.714-6.0862-28.255-8.2979-97.764-14.483-152.1-16.827-45.278-1.9526-91.335 7.1805-110.47 18.53-16.102 9.5489-49.25 52.174-54.684 65.06m22.717-8.5481c-1.8672 4.7718-2.3073 5.5887-3.0462 10.374l-0.0759 4.8981 26.472-1.2857c14.368-0.32347 57.527-1.8402 63.348-2.4144l10.585-1.0442 5.1502-37.16 4.1644-34.695h-4.2841c-7.9159 0-55.372 6.6637-64.286 11.695-4.8598 2.7427-14.23 10.823-17.126 16.06-6.0979 11.03-14.075 16.125-20.902 33.572zm192.5-9.601c-4.9389-9.434-12.729-25.086-19.014-33.931-4.9244-6.7631-11.88-10.06-14.179-11.167-4.4701-2.1527-15.311-4.9447-30.664-4.9447-20.865 0-12.319-0.47071-12.849 1.0549-1.0863 3.126-7.7882 69.003-7.0503 69.741 1.2823 1.2823 46.819 0.29614 48.334-1.1003 0.85313-0.78621 10.404-1.4138 21.225-1.3946 0 0 14.296 0.49357 15.342-2.6433 3.8343-4.1828-1.1439-15.615-1.1439-15.615zm-18.088 24.422 4.1317 6.0878-0.32961 7.1359c-0.18293 3.9627-28.041-2.7598-28.773 6.4606-0.56998 7.1749 18.251-0.0446 14.476 6.0823-2.6618 4.3222 10.072-0.33128 10.324 4.4718 0.37869 7.2378-0.36307 54.389 0.24874 62.629 0.9683 13.044 1.3508 24.126 0.84985 24.627-0.88035 0.88034-87.945-4.4977-88.952-5.4835-0.61404-0.60133-3.4395-59.886-3.5231-73.916l-0.0608-10.204c-0.83758-5.4153 1.2445-9.1795 9.1953-17.179 1.6775-1.2705 4.3357-2.3332 5.9072-2.3619 4.0024-0.0725 3.8375-6.5827-0.16675-6.5827-5.5061 0-14.055 7.2217-18.025 15.227l-3.9057 7.8752 1.916 45.971c1.0538 25.284 2.4441 46.43 3.0894 46.99 1.0414 0.9045 85.664 6.7971 97.386 6.6755l4.6543-0.0502-1.3889-20.817 0.00017 0.003c-2.5206-37.779-1.7904-76.505 1.6799-89.094l3.0689-11.133 3.5449-5.6698m-74.092-12.362c0.0279-2.9185 2.0993-18.057 3.401-30.629 1.3018-12.572 2.3821-23.006 2.4007-23.186 0.0167-0.1807-4.3514 0.4378 9.5686 0.16954 16.133-0.3112 21.137 1.3223 28.047 3.405 10.621 3.2017 25.269 39.972 30.146 48.833 5.5506 10.083-11.654 5.2218-30.418 6.4355-7.1345-0.28499-13.672-0.31065-24.92 0.53819-9.6303 0.72681-6.2528-0.79803-10.518-0.60729-7.7411 0.34634-7.707-10.256-7.707-4.9595zm87.73 139.48c-0.83177-10.05 1.5613-34.181 4.3362-43.727 3.1425-10.81 10.369-19.463 18.505-22.159 3.3766-1.119 15.043-2.0534 26.45-2.1185 17.676-0.10095 21.393 0.35414 27.756 3.3974l7.3471 3.514-11.429 0.16118c-22.801 0.3218-41.028 10.429-51.231 28.406-5.485 9.6647-9.9951 23.799-9.9951 31.325 0 6.3081-0.92904 7.323-6.7043 7.323-4.0532 0-4.5806-0.64148-5.0342-6.1226zm87.738-54.075c2.0761-2.1447 8.6435 2.15 11.071 7.2396l2.8234 5.9207-7.2394-6.2781c-3.9817-3.4529-6.9762-6.5499-6.6545-6.8823zm72.622 29.577c-6.0452-6.6798-6.984-24.668-1.8204-34.879 3.0887-6.108 6.2645-6.699 10.689-1.9892 3.3967 3.6156 3.8474 5.6662 3.8474 17.505 0 18.545-5.6587 27.161-12.716 19.363zm-12.03-15.52c0.44728-1.1054 0.78592 0.19464 0.75268 2.8883-0.0335 2.6939-0.39932 3.5984-0.81314 2.0098s-0.3865-3.7927 0.0602-4.8981zm134.75 2.242c-4.5932-9.1113-1.2685-24.826 5.4579-25.798 6.4233-0.92804 9.8263 15.348 5.4287 25.965-2.4839 5.9969-7.8205 5.9149-10.887-0.16731zm-101.03-6.2926c-0.0223-12.231-9.7778-28.164-17.24-28.164-1.5844 0-8.0995-2.4771-14.478-5.5047-15.04-17.868-55.593-58.14-116.44-60.814-13.26-0.5827-23.893-1.3512-23.632-1.6116 0.26045-0.26045 10.006-1.6774 21.657-3.1491 17.288-2.1837 29.29-2.4781 65.266-1.6011 71.955 1.7541 87.453 13.31 116.56 25.327 12.296 5.0762 31.604 44.92 38.656 52.763 7.1963 8.0041 11.63 17.519 10.064 21.598-1.3392 3.4898-28.281 5.0085-61.222 5.4117l-19.184 0.2348-0.0112-4.4899zm-33.726-7.3471c0.45286-1.1224 0.82346-0.20412 0.82346 2.0409s-0.37032 3.1634-0.82346 2.0408c-0.45287-1.1224-0.45287-2.9592 0-4.0817zm106.39-22.55-7.5918-7.6177-9.8672-26.799c-1.133-3.0772 13.686 3.8885 21.942 9.9321 15.771 11.545 21.95 24.901 21.95 24.901l-4.1663 4.9514c-2.2915 2.7232-4.635 6.9152-5.2079 9.3155-1.7392 7.2866-2.4004 7.2835-6.0013-0.0279-1.9058-3.87-6.8814-10.464-11.057-14.654zm-454.73-59.84c2.6654-9.3923 12.555-24.808 19.872-32.813 5.5642-6.0881 10.681-15.121 18.874-19.081 11.508-5.5627 54.955-9.7233 56.509-8.1693 0.88113 0.88113-6.8224 57.68-7.9521 58.809-0.75715 0.75715-58.002 4.1917-76.985 4.6678-9.9665 0.24985-11.325 0.13496-10.318-3.4149zm201.08-17.569c-1.74-2.212-3.881-14.431-8.1659-22.893-9.4357-18.634 8.2038-18.422 17.081-20.79 15.552-4.1474 35.761-2.657 71.96 7.0448 14.992 3.0351 22.02-4.9637 28.822 2.6145 7.2697 8.0992 20.591 27.153 22.546 32.25 1.0526 2.743-1.1235 2.8418-41.176 1.8699-32.182-0.78096-45.993-0.4813-57.798 1.2534-8.5309 1.2538-19.682 2.3678-24.78 2.4757-8.0311 0.1701-5.7486-0.34132-8.4895-3.8258zm63.097-55.887c1.5886-0.41383 3.7927-0.3865 4.8981 0.0602 51.866 21.092 30.66 17.069-4.8981-0.0608z"/>
    <path id="path5927" style="stroke:#1a1a1a;stroke-width:5.5771px;fill:none" d="m100.76 440.08s34.399-11.981 83.896-16.164"/>
    <path id="path5937" style="stroke:#1a1a1a;stroke-width:5.5771px;fill:#ffffff" d="m517.48 334.27s82.96 25.097 104.57 23.703c21.611-1.3943 55.144-7.3302 54.447-15.347 0 0-46.778-20.207-69.784-22.298-23.006-2.0914-94.114-3.4857-111.54 11.154-17.429 14.64-80.699 82.114-80.699 82.114"/>
    <path id="path5912" style="stroke:#1a1a1a;stroke-width:5.5771px;fill:#ffffff" d="m417.96 414.29s85.579-78.628 97.431-77.931c11.851 0.69714 94.114 28.583 137.34 16.731 43.223-11.851 15.935-8.6049 15.935-8.6049l-100.81 70.51s-46.708-11.851-75.291-13.246c-28.583-1.3943-74.594 12.549-74.594 12.549z"/>
    <path id="path5939" style="stroke:#ffffff;stroke-width:2.2309;fill:none" d="m586.35 507.51s1.6048-15.287-10.193-21.98c-9.5907-5.4408-16.318-4.3248-23.703 2.7886"/>
    <path id="path6871" style="stroke:#1a1a1a;stroke-width:5.5771px;fill:none" d="m232.77 375.49-10.89 55.411"/>
    <path id="path6880" style="stroke:#1a1a1a;stroke-linecap:round;stroke-width:5.5771px;fill:none" d="m186.63 433.62s-10.352 3.9437-10.845 11.338c-0.49301 7.3943-0.00005 38.45-0.00005 38.45"/>
    <path id="path7821" style="stroke:#1a1a1a;fill:#ffffff" d="m76.66 508.31s4.1124-2.9233 5.7564-1.315c1.6441 1.6083-1.3984 4.5441 0.15114 4.5861 3.0988 0.0837 10.671 1.1104 10.846 2.4999 0.17512 1.3895 3.9186 10.406 2.4648 13.063-1.4538 2.6573-18.719 1.5144-21.436-5.2781-1.4789-3.6971-3.2042-11.831 2.2182-13.556z"/>
  </g>
  <metadata>
    <rdf:RDF>
      <cc:Work>
        <dc:format>image/svg+xml</dc:format>
        <dc:type rdf:resource="http://purl.org/dc/dcmitype/StillImage"/>
        <cc:license rdf:resource="http://creativecommons.org/licenses/publicdomain/"/>
        <dc:publisher>
          <cc:Agent rdf:about="http://openclipart.org/">
            <dc:title>Openclipart</dc:title>
          </cc:Agent>
        </dc:publisher>
        <dc:title>Car with open trunk</dc:title>
        <dc:date>2011-02-16T19:42:11</dc:date>
        <dc:description>Car with open trunk</dc:description>
        <dc:source>https://openclipart.org/detail/119743/car-with-open-trunk-by-entropy_eater</dc:source>
        <dc:creator>
          <cc:Agent>
            <dc:title>entropy_eater</dc:title>
          </cc:Agent>
        </dc:creator>
        <dc:subject>
          <rdf:Bag>
            <rdf:li>automobile</rdf:li>
            <rdf:li>car</rdf:li>
            <rdf:li>compartment</rdf:li>
            <rdf:li>hood</rdf:li>
            <rdf:li>trunk</rdf:li>
          </rdf:Bag>
        </dc:subject>
      </cc:Work>
      <cc:License rdf:about="http://creativecommons.org/licenses/publicdomain/">
        <cc:permits rdf:resource="http://creativecommons.org/ns#Reproduction"/>
        <cc:permits rdf:resource="http://creativecommons.org/ns#Distribution"/>
        <cc:permits rdf:resource="http://creativecommons.org/ns#DerivativeWorks"/>
      </cc:License>
    </rdf:RDF>
  </metadata>
</svg>
